<?xml version="1.0" encoding="UTF-8" standalone="no"?>
<!-- Created with Inkscape (http://www.inkscape.org/) -->

<svg
   xmlns:dc="http://purl.org/dc/elements/1.1/"
   xmlns:cc="http://creativecommons.org/ns#"
   xmlns:rdf="http://www.w3.org/1999/02/22-rdf-syntax-ns#"
   xmlns:svg="http://www.w3.org/2000/svg"
   xmlns="http://www.w3.org/2000/svg"
   xmlns:sodipodi="http://sodipodi.sourceforge.net/DTD/sodipodi-0.dtd"
   xmlns:inkscape="http://www.inkscape.org/namespaces/inkscape"
   version="1.1"
   width="324"
   height="529"
   id="svg2"
   inkscape:version="0.47 r22583"
   sodipodi:docname="Anakin's racing stripes.svg">
  <metadata
     id="metadata2822">
    <rdf:RDF>
      <cc:Work
         rdf:about="">
        <dc:format>image/svg+xml</dc:format>
        <dc:type
           rdf:resource="http://purl.org/dc/dcmitype/StillImage" />
      </cc:Work>
    </rdf:RDF>
  </metadata>
  <sodipodi:namedview
     pagecolor="#ffffff"
     bordercolor="#666666"
     borderopacity="1"
     objecttolerance="10"
     gridtolerance="10"
     guidetolerance="10"
     inkscape:pageopacity="0"
     inkscape:pageshadow="2"
     inkscape:window-width="1280"
     inkscape:window-height="750"
     id="namedview2820"
     showgrid="false"
     inkscape:zoom="0.70710678"
     inkscape:cx="316.4712"
     inkscape:cy="326.46794"
     inkscape:window-x="-8"
     inkscape:window-y="-8"
     inkscape:window-maximized="1"
     inkscape:current-layer="svg2" />
  <defs
     id="defs4" />
  <g
     transform="translate(130.57143,-216.43361)"
     id="layer1">
    <path
       d="M 18.92857,737.0925 C 8.202,733.57014 -13.873485,720.96986 -16.278805,717.07797 c -0.04068,-0.0582 1.499746,-2.39208 3.484555,-4.98764 4.8543878,-6.34814 18.4306038,-25.52729 25.38016,-39.57283 8.606189,-17.39371 19.873038,-54.71607 19.890197,-54.71607 0.01251,0 9.884044,36.27062 17.958093,53.13218 7.032972,14.68741 21.375778,34.90903 26.24855,41.20265 3.118347,4.02762 3.657189,4.87491 3.474397,5.02018 -3.272753,2.6009 -16.594857,12.00211 -26.249097,16.27585 -9.46549,4.19019 -10.52028,4.43204 -20.47948,4.69572 -6.70332,0.17748 -11.94636,-0.19695 -14.5,-1.03551 z m -45.5,-95.61219 c -14.139072,-7.26431 -23.674643,-18.03482 -31.076922,-35.10162 -5.922368,-13.6547 -7.36899,-22.27566 -7.398153,-44.08834 -0.02306,-17.24847 0.124705,-18.81111 1.975075,-20.8868 1.1,-1.23394 9.2,-8.81339 18,-16.84321 23.5335,-21.47384 36.64622,-34.36843 46.6199,-45.8444 4.88405,-5.61972 8.8801,-10.51643 8.8801,-10.88158 0,-0.96198 -13.12394,-19.20594 -22.4703,-31.2366 -4.41634,-5.68471 -9.3797,-12.24447 -11.0297,-14.57723 -4.40073,-6.22173 -23.688211,-28.58692 -24.653025,-28.58692 -0.899805,0 -4.148354,4.84226 -14.088369,21 -16.677633,27.1099 -24.836925,43.85605 -32.880475,67.48394 -3.179976,9.34117 -6.541331,17.7139 -7.094541,17.65723 -0.54089,-0.0554 -13.79716,-21.11805 -17.61216,-38.64117 -2.15331,-9.89066 -3.40036,-27.98816 -2.72182,-39.5 1.34525,-22.82333 7.24936,-40.98918 7.24936,-40.98918 0,0 2.95866,0.66549 5.59576,1.46564 10.555209,3.20263 25.678646,-3.11266 33.036071,-13.79532 2.018059,-2.93013 3.669199,-5.92095 3.669199,-6.64626 0,-0.72532 -1.797086,-4.16424 -3.993523,-7.64205 -6.37135,-10.08832 -14.407675,-26.31054 -16.948434,-34.21232 -1.935539,-6.01953 -2.236685,-8.53894 -1.732959,-14.49802 1.138843,-13.4725 9.349339,-39.86732 14.130256,-45.42547 3.109567,-3.61508 4.543925,-2.17968 4.548681,4.552 0.0053,7.51366 2.416747,22.10198 5.082713,30.74856 4.099312,13.29538 14.658108,37.54866 16.968711,38.97669 1.673228,1.03411 6.155122,-3.7795 15.377125,-16.51523 4.587548,-6.33547 14.92245,-20.06904 22.96646,-30.51904 8.044,-10.45 21.87561,-28.5625 30.7369,-40.25 8.86129,-11.6875 16.49487,-21.25 16.96351,-21.25 1.11551,0 6.65978,6.12009 9.86727,10.89208 1.39331,2.07292 6.00774,8.23271 10.25428,13.68843 4.24654,5.45572 12.04463,15.54449 17.32908,22.41949 5.28445,6.875 12.03425,15.65 14.99957,19.5 2.96532,3.85 10.4006,13.75 16.52286,22 12.60977,16.9922 16.2244,21.05258 17.8481,20.04907 2.45032,-1.51438 12.66242,-24.94714 16.99267,-38.99149 2.66596,-8.64658 5.0774,-23.2349 5.08271,-30.74856 0.0109,-15.40205 8.83175,-1.84711 15.53204,23.86792 3.78903,14.5419 4.21283,23.28609 1.51811,31.32306 -2.90309,8.65844 -8.65567,20.45549 -15.46905,31.72301 -3.06739,5.07265 -5.56256,9.79765 -5.54482,10.5 0.0575,2.27735 7.64666,11.87429 11.41491,14.43488 8.74172,5.94016 17.98965,7.99549 25.6884,5.70921 4.88238,-1.44991 5.76398,-1.76919 5.76398,-1.76919 0,-0.67572 8.31286,45.63377 6.18285,65.41223 -1.91771,17.80717 -4.28009,28.46923 -11.03847,41.2663 -2.70284,5.11786 -8.60249,12.91028 -8.926,12.71406 -0.5681,-0.34459 -1.70832,-2.36372 -2.44463,-4.06885 -6.69144,-15.49602 -18.94415,-50.39033 -29.89363,-68.49989 -2.35382,-3.89303 -6.26532,-10.41803 -8.69222,-14.5 -6.22408,-10.46871 -12.01995,-18.92176 -12.97377,-18.92176 -0.91477,0 -18.74273,20.71384 -24.11368,28.01704 -1.925,2.61755 -7.11336,9.42202 -11.5297,15.12107 -9.428,12.16633 -22.4703,30.31191 -22.4703,31.26264 0,0.36515 3.98991,5.26186 8.86647,10.88158 9.72922,11.21189 22.26947,23.53083 46.65422,45.83087 8.78862,8.03726 16.87931,15.62169 17.97931,16.85428 1.72648,1.93459 2.04898,3.96283 2.35816,14.83062 0.42327,14.87787 -1.28126,32.06663 -4.0255,40.59388 -1.08112,3.35941 -4.00612,10.34317 -6.5,15.51946 -6.03558,12.52743 -16.18833,22.98251 -28.16612,29.00483 -4.46718,2.24605 -8.85821,4.08373 -9.75784,4.08373 -1.99097,0 -1.68916,-1.94332 2.17429,-14 3.58271,-11.18058 4.41282,-27.97945 1.97669,-40.00225 -3.06114,-15.10731 -8.49977,-26.93942 -20.80302,-45.25835 -20.48517,-30.50139 -31.46671,-45.7394 -32.25886,-45.7394 -7.311983,8.39958 -13.231487,18.06643 -19.70022,27.15321 -11.11227,15.06274 -24.17151,36.31247 -27.53002,44.79629 -7.54465,19.05832 -9.21735,38.10774 -4.8559,55.30111 1.32642,5.22889 4.052834,17.98172 4.1128,18.00323 0.04283,0.0154 -10.43862,-4.12905 -10.52446,-4.20714 z m 72.75,-212.78983 c 24.42847,-27.4684 48.25,-56.79038 48.25,-59.39104 0,-1.77518 -6.46929,-11.26367 -17.55448,-25.74711 -4.37004,-5.7097 -8.84552,-11.59756 -9.94552,-13.08413 -2.56367,-3.46461 -17.53072,-21.56736 -23.89198,-28.89751 -9.68191,-11.15657 -10.61953,-12.06905 -11.85483,-11.5369 -1.63717,0.70527 -8.80529,9.21503 -30.79039,36.55338 -19.56952,24.33459 -30.9628,40.05129 -30.9628,42.71227 0,1.56034 5.11883,8.49865 15.22312,20.63417 14.27633,17.14623 23.91751,28.49483 32.27688,37.99298 4.95,5.62433 10.114444,11.75938 11.70961,13.42334 0.93189,0.97208 2.76287,2.90998 3.125,2.9803 5.346837,-5.56117 9.761661,-10.35117 14.41539,-15.63975 z"
       id="path2834"
       style="fill:#0606fe;fill-opacity:1;stroke:none"
       sodipodi:nodetypes="ccsasassssccsssssssssssssscsssssssssssssssssssssssssssccsscssssssssssssssssssccsssccsssssssssscc" />
  </g>
</svg>
